<svg width="30" height="29" viewBox="0 0 30 29" fill="none" xmlns="http://www.w3.org/2000/svg">
<path d="M23.5 12C26.5376 12 29 9.53757 29 6.5C29 3.46243 26.5376 1 23.5 1C20.4624 1 18 3.46243 18 6.5C18 9.53757 20.4624 12 23.5 12Z" stroke="#FFB127" stroke-linecap="round" stroke-linejoin="round"/>
<path d="M23.5 4.30005V8.70005" stroke="#FFB127" stroke-linecap="round" stroke-linejoin="round"/>
<path d="M21.3 6.5H25.7" stroke="#FFB127" stroke-linecap="round" stroke-linejoin="round"/>
<path d="M10.7617 29C16.4731 29 21.5234 28.5871 21.5234 22.4297C21.5234 17.1559 17.8246 11.4864 13.5938 8.21561V5.60708C14.8849 5.34393 15.8594 4.19973 15.8594 2.83203V1.69922C15.8594 1.38645 15.6058 1.13281 15.293 1.13281C15.0532 1.13281 14.8058 0.929869 14.5194 0.694924C14.142 0.385326 13.6724 0 13.0273 0C12.3823 0 11.9127 0.385326 11.5353 0.694924C11.2489 0.929869 11.0015 1.13281 10.7617 1.13281C10.522 1.13281 10.2746 0.929869 9.98818 0.694924C9.61078 0.385326 9.14112 0 8.49609 0C7.85107 0 7.38141 0.385326 7.00401 0.694924C6.71763 0.929869 6.47023 1.13281 6.23047 1.13281C5.91764 1.13281 5.66406 1.38645 5.66406 1.69922V2.83203C5.66406 4.19968 6.63856 5.34393 7.92969 5.60708V8.21561C3.7077 11.4796 0 17.1476 0 22.4297C0 28.5203 4.93623 29 10.7617 29ZM6.79688 2.83203V2.16299C7.16572 2.02751 7.46552 1.78163 7.72255 1.57076C8.00893 1.33576 8.25633 1.13281 8.49609 1.13281C8.73585 1.13281 8.98326 1.33576 9.26963 1.5707C9.64703 1.8803 10.1167 2.26562 10.7617 2.26562C11.4067 2.26562 11.8764 1.8803 12.2538 1.5707C12.5402 1.33576 12.7876 1.13281 13.0273 1.13281C13.2671 1.13281 13.5145 1.33576 13.8009 1.5707C14.0579 1.78157 14.3577 2.02745 14.7266 2.16294V2.83203C14.7266 3.76898 13.9643 4.53125 13.0273 4.53125H8.49609C7.55914 4.53125 6.79688 3.76898 6.79688 2.83203ZM8.68709 9.0625H12.8364C17.292 12.4729 20.3906 17.944 20.3906 22.4297C20.3906 27.5591 16.2727 27.8672 10.7617 27.8672C5.03184 27.8672 1.13281 27.4554 1.13281 22.4297C1.13281 17.944 4.23139 12.4729 8.68709 9.0625Z" fill="#27AE60"/>
<path d="M10.7617 19.5977C11.3864 19.5977 11.8945 20.1058 11.8945 20.7305C11.8945 21.3551 11.3864 21.8633 10.7617 21.8633C10.3029 21.8633 9.89229 21.5897 9.71562 21.1663C9.59515 20.8776 9.26346 20.7412 8.97476 20.8617C8.68607 20.9822 8.54973 21.3139 8.67021 21.6026C8.9486 22.2696 9.51783 22.7493 10.1953 22.9233V23.5625C10.1953 23.8753 10.4489 24.1289 10.7617 24.1289C11.0745 24.1289 11.3281 23.8753 11.3281 23.5625V22.9244C12.3042 22.6722 13.0273 21.7842 13.0273 20.7305C13.0273 19.4812 12.011 18.4648 10.7617 18.4648C10.1371 18.4648 9.62891 17.9567 9.62891 17.332C9.62891 16.7074 10.1371 16.1992 10.7617 16.1992C11.2205 16.1992 11.6312 16.4728 11.8078 16.8962C11.9283 17.1849 12.2599 17.3213 12.5487 17.2008C12.8374 17.0803 12.9737 16.7486 12.8532 16.4599C12.5748 15.7929 12.0056 15.3132 11.3281 15.1392V14.5C11.3281 14.1872 11.0745 13.9336 10.7617 13.9336C10.4489 13.9336 10.1953 14.1872 10.1953 14.5V15.1381C9.21922 15.3903 8.49609 16.2783 8.49609 17.332C8.49609 18.5813 9.51245 19.5977 10.7617 19.5977Z" fill="#27AE60"/>
</svg>
