<svg width="41" height="38" viewBox="0 0 41 38" fill="none" xmlns="http://www.w3.org/2000/svg">
<circle cx="19" cy="19" r="19" fill="#F5F5F5"/>
<path d="M18.9798 25.8906C16.5951 26.1385 14.423 24.4355 13.9657 21.9595C13.9192 21.3765 14.3305 20.8642 14.8844 20.8152C15.4382 20.7662 15.9249 21.1992 15.9715 21.7822C16.0597 22.8842 17.4095 23.7793 18.9799 23.7793C20.6125 23.7793 21.9884 22.8124 21.9884 21.6681C21.9884 20.6378 21.0377 19.9791 18.998 19.5781L18.7794 19.5358C15.5242 18.9024 13.9658 17.5027 13.9658 15.3345C14.2796 12.7326 16.4995 10.8632 18.9799 11.1121C21.3646 10.8642 23.5367 12.5671 23.994 15.0432C24.0405 15.6262 23.6292 16.1385 23.0754 16.1875C22.5215 16.2365 22.0348 15.8035 21.9883 15.2205C21.9041 14.1185 20.5543 13.2233 18.9798 13.2233C17.3473 13.2233 15.9714 14.1903 15.9714 15.3345C15.9714 16.3648 16.924 17.0235 18.9658 17.4246L19.1865 17.469C22.4356 18.1023 24 19.5 24 21.6702C23.6852 24.274 21.4618 26.1432 18.9798 25.8906Z" fill="#27AE60"/>
<path d="M18.9798 28.0009C18.426 28.0009 17.9769 27.5282 17.9769 26.9452V10.0556C17.9769 9.47265 18.426 9 18.9798 9C19.5336 9 19.9827 9.47265 19.9827 10.0556V26.9453C19.9827 27.5282 19.5336 28.0009 18.9798 28.0009Z" fill="#27AE60"/>
<path fill-rule="evenodd" clip-rule="evenodd" d="M33.6272 27.2151C31.9342 27.6122 30.6122 28.9342 30.2151 30.6272C29.9283 31.8499 29.9283 33.1223 30.2151 34.345C30.6122 36.038 31.9342 37.3599 33.6272 37.7571C34.8499 38.0439 36.1223 38.0439 37.345 37.7571C39.038 37.3599 40.3599 36.038 40.7571 34.345C41.0439 33.1223 41.0439 31.8499 40.7571 30.6272C40.3599 28.9342 39.038 27.6122 37.345 27.2151C36.1223 26.9283 34.8499 26.9283 33.6272 27.2151ZM33.5475 31.4985C33.3522 31.6938 33.3522 32.0104 33.5475 32.2056C33.7427 32.4009 34.0593 32.4009 34.2546 32.2056L34.9863 31.4739L34.9863 34.7056C34.9863 34.9817 35.2102 35.2056 35.4863 35.2056C35.7624 35.2056 35.9863 34.9817 35.9863 34.7056L35.9863 31.4739L36.718 32.2056C36.9133 32.4009 37.2299 32.4009 37.4251 32.2056C37.6204 32.0104 37.6204 31.6938 37.4251 31.4985L35.8399 29.9133C35.7461 29.8195 35.6189 29.7668 35.4863 29.7668C35.3537 29.7668 35.2265 29.8195 35.1328 29.9133L33.5475 31.4985Z" fill="#27AE60"/>
</svg>
