<svg width="41" height="38" viewBox="0 0 41 38" fill="none" xmlns="http://www.w3.org/2000/svg">
<circle cx="19" cy="19" r="19" fill="#F5F5F5"/>
<path d="M18.9798 25.8906C16.5951 26.1385 14.423 24.4355 13.9657 21.9595C13.9192 21.3765 14.3305 20.8642 14.8844 20.8152C15.4382 20.7662 15.9249 21.1992 15.9715 21.7822C16.0597 22.8842 17.4095 23.7793 18.9799 23.7793C20.6125 23.7793 21.9884 22.8124 21.9884 21.6681C21.9884 20.6378 21.0377 19.9791 18.998 19.5781L18.7794 19.5358C15.5242 18.9024 13.9658 17.5027 13.9658 15.3345C14.2796 12.7326 16.4995 10.8632 18.9799 11.1121C21.3646 10.8642 23.5367 12.5671 23.994 15.0432C24.0405 15.6262 23.6292 16.1385 23.0754 16.1875C22.5215 16.2365 22.0348 15.8035 21.9883 15.2205C21.9041 14.1185 20.5543 13.2233 18.9798 13.2233C17.3473 13.2233 15.9714 14.1903 15.9714 15.3345C15.9714 16.3648 16.924 17.0235 18.9658 17.4246L19.1865 17.469C22.4356 18.1023 24 19.5 24 21.6702C23.6852 24.274 21.4618 26.1432 18.9798 25.8906Z" fill="#FF4B34"/>
<path d="M18.9799 28.0009C18.4261 28.0009 17.9771 27.5282 17.9771 26.9452V10.0556C17.9771 9.47265 18.4261 9 18.9799 9C19.5338 9 19.9828 9.47265 19.9828 10.0556V26.9453C19.9828 27.5282 19.5338 28.0009 18.9799 28.0009Z" fill="#FF4B34"/>
<path fill-rule="evenodd" clip-rule="evenodd" d="M37.345 37.7576C39.038 37.3604 40.3599 36.0385 40.7571 34.3455C41.0439 33.1228 41.0439 31.8503 40.7571 30.6277C40.3599 28.9346 39.038 27.6127 37.345 27.2156C36.1223 26.9288 34.8499 26.9288 33.6272 27.2156C31.9342 27.6127 30.6122 28.9346 30.2151 30.6277C29.9283 31.8503 29.9283 33.1228 30.2151 34.3455C30.6122 36.0385 31.9342 37.3604 33.6272 37.7576C34.8499 38.0444 36.1223 38.0444 37.345 37.7576ZM37.4247 33.4741C37.62 33.2789 37.62 32.9623 37.4247 32.767C37.2294 32.5717 36.9129 32.5717 36.7176 32.767L35.9859 33.4987L35.9859 30.267C35.9859 29.9909 35.762 29.767 35.4859 29.767C35.2097 29.767 34.9859 29.9909 34.9859 30.267L34.9859 33.4987L34.2541 32.767C34.0589 32.5717 33.7423 32.5717 33.547 32.767C33.3518 32.9623 33.3518 33.2789 33.547 33.4741L35.1323 35.0594C35.2261 35.1532 35.3533 35.2058 35.4859 35.2058C35.6185 35.2058 35.7456 35.1532 35.8394 35.0594L37.4247 33.4741Z" fill="#FF4B34"/>
</svg>
